<?xml version="1.0" standalone="no"?>
<!DOCTYPE svg PUBLIC "-//W3C//DTD SVG 20010904//EN"
 "http://www.w3.org/TR/2001/REC-SVG-20010904/DTD/svg10.dtd">
<svg version="1.0" xmlns="http://www.w3.org/2000/svg"
 width="512.000000pt" height="512.000000pt" viewBox="0 0 512.000000 512.000000"
 preserveAspectRatio="xMidYMid meet">

<g transform="translate(0.000000,512.000000) scale(0.100000,-0.100000)"
fill="#000000" stroke="none">
<path d="M523 5100 c-270 -71 -453 -303 -454 -574 0 -181 54 -316 175 -436
147 -146 346 -206 546 -166 l84 17 128 -128 129 -129 -75 -112 c-208 -312
-306 -635 -306 -1012 0 -377 98 -700 306 -1012 l75 -112 -129 -129 -128 -128
-84 17 c-298 60 -598 -115 -696 -406 -29 -86 -27 -292 4 -382 79 -227 293
-389 538 -405 281 -19 549 176 619 452 19 75 19 224 1 295 l-15 55 136 136
135 136 84 -52 c295 -185 611 -275 965 -275 356 1 670 90 960 273 l87 54 135
-136 136 -136 -15 -55 c-22 -79 -14 -265 14 -343 63 -175 216 -323 392 -378
326 -103 680 94 765 426 20 77 20 223 0 300 -56 220 -238 393 -461 440 -89 19
-157 19 -251 -1 l-76 -16 -129 129 -129 129 73 110 c210 314 308 637 308 1014
0 377 -98 700 -306 1012 l-75 112 129 129 128 128 84 -17 c293 -59 590 109
691 393 30 82 37 255 15 343 -99 392 -551 581 -894 373 -120 -73 -218 -191
-262 -316 -30 -83 -38 -267 -16 -347 l15 -55 -136 -136 -135 -136 -87 54
c-175 111 -391 197 -611 245 -93 20 -133 22 -350 22 -217 0 -257 -2 -350 -22
-220 -48 -434 -134 -613 -246 l-85 -53 -135 136 -136 136 15 55 c18 71 18 220
-1 295 -81 318 -417 518 -732 435z m2242 -1091 c407 -51 792 -297 1025 -654
311 -478 311 -1112 0 -1590 -29 -44 -63 -93 -76 -108 l-23 -28 -5 23 c-3 13
-10 59 -16 103 -22 158 -75 296 -124 329 -12 7 -143 62 -291 121 -254 100
-274 110 -348 171 -113 92 -121 91 -248 -33 l-99 -96 -99 96 c-127 124 -136
125 -246 34 -72 -60 -90 -69 -348 -172 -149 -60 -282 -115 -293 -122 -29 -19
-79 -114 -98 -188 -8 -33 -22 -104 -30 -159 -8 -54 -16 -100 -18 -102 -5 -4
-76 95 -127 179 -203 331 -259 773 -147 1159 76 262 247 527 449 696 336 283
724 396 1162 341z"/>
<path d="M2435 3760 c-217 -35 -354 -156 -401 -357 -20 -84 -14 -331 10 -440
70 -319 247 -494 501 -495 258 -2 452 168 525 462 30 118 39 377 16 473 -42
179 -156 297 -331 342 -75 19 -241 27 -320 15z"/>
</g>
</svg>
