<?xml version="1.0" standalone="no"?>
<!DOCTYPE svg PUBLIC "-//W3C//DTD SVG 20010904//EN"
 "http://www.w3.org/TR/2001/REC-SVG-20010904/DTD/svg10.dtd">
<svg version="1.0" xmlns="http://www.w3.org/2000/svg"
 width="182.000000pt" height="182.000000pt" viewBox="0 0 182.000000 182.000000"
 preserveAspectRatio="xMidYMid meet">

<g transform="translate(0.000000,182.000000) scale(0.100000,-0.100000)"
fill="#000000" stroke="none">
<path d="M756 1805 c-189 -39 -334 -115 -470 -244 -122 -117 -212 -270 -258
-436 -31 -114 -31 -326 0 -440 46 -166 136 -319 258 -436 85 -81 140 -118 246
-169 129 -62 216 -80 383 -80 167 0 254 18 383 80 106 51 161 88 246 169 123
118 215 275 256 435 28 112 28 330 0 442 -41 160 -133 317 -256 435 -171 163
-370 247 -604 255 -75 2 -139 -2 -184 -11z m461 -626 c37 -19 68 -38 69 -44 2
-5 -18 -34 -44 -64 l-48 -53 -42 21 c-61 31 -119 36 -162 14 -51 -27 -80 -76
-80 -137 0 -99 56 -158 149 -158 75 0 91 8 91 47 l0 34 -57 3 -58 3 0 60 0 60
138 3 138 3 -3 -138 -3 -137 -40 -27 c-135 -92 -358 -73 -456 38 -53 61 -74
118 -74 203 0 89 26 154 83 213 68 71 143 98 255 94 65 -3 88 -9 144 -38z
m-537 -264 l0 -295 -85 0 -85 0 0 295 0 295 85 0 85 0 0 -295z"/>
</g>
</svg>
